<svg xmlns="http://www.w3.org/2000/svg" width="37" height="26" viewBox="0 0 37 26" fill="none">
  <path d="M23.8149 16.2626C22.6906 7.83012 28.8232 2.50966 37 1.5058V0C26.6768 0.30116 19.2155 6.92664 19.2155 15.6602C19.2155 21.8842 22.384 26 27.2901 26C31.3785 26 34.0359 23.39 34.0359 19.7761C34.0359 16.6641 31.5829 14.2548 28.4144 14.2548C26.3702 14.2548 24.7348 14.8571 23.8149 16.2626ZM4.59945 16.2626C3.47514 7.83012 9.60773 2.50966 17.7845 1.5058V0C7.46132 0.30116 0 6.92664 0 15.6602C0 21.8842 3.16851 26 8.07459 26C12.163 26 14.8204 23.39 14.8204 19.7761C14.8204 16.6641 12.3674 14.2548 9.1989 14.2548C7.1547 14.2548 5.51934 14.8571 4.59945 16.2626Z" fill="#0E81AE"/>
</svg>
